<?xml version="1.0" encoding="UTF-8" standalone="no"?>
<!DOCTYPE svg PUBLIC "-//W3C//DTD SVG 1.1//EN" "http://www.w3.org/Graphics/SVG/1.1/DTD/svg11.dtd">
<!-- Generated by Microsoft Visio, SVG Export GoodSecVer.svg Page-1 -->
<svg xmlns="http://www.w3.org/2000/svg" xmlns:xlink="http://www.w3.org/1999/xlink" xmlns:ev="http://www.w3.org/2001/xml-events"
		width="9.95566in" height="7.90614in" viewBox="0 0 716.807 569.242" xml:space="preserve" color-interpolation-filters="sRGB"
		class="st13">
	<style type="text/css">
	<![CDATA[
		.st1 {marker-end:url(#mrkr4-6);stroke:#000000;stroke-linecap:round;stroke-linejoin:round;stroke-width:0.2376}
		.st2 {fill:#000000;fill-opacity:1;stroke:#000000;stroke-opacity:1;stroke-width:0.086161879895561}
		.st3 {fill:#d7e3bf;stroke:#000000;stroke-linecap:round;stroke-linejoin:round;stroke-width:0.75}
		.st4 {fill:#000000;font-family:Calibri;font-size:0.666664em}
		.st5 {font-size:1em}
		.st6 {fill:#ddd6e5;stroke:#000000;stroke-linecap:round;stroke-linejoin:round;stroke-width:0.75}
		.st7 {fill:#ffffff;stroke:none;stroke-linecap:butt;stroke-width:7.2}
		.st8 {fill:#fbd7bb;stroke:#000000;stroke-linecap:round;stroke-linejoin:round;stroke-width:0.75}
		.st9 {fill:#b7dde8;stroke:#000000;stroke-linecap:round;stroke-linejoin:round;stroke-width:0.75}
		.st10 {fill:#eec1f9;stroke:#000000;stroke-linecap:round;stroke-linejoin:round;stroke-width:0.75}
		.st11 {fill:#fee599;stroke:#000000;stroke-linecap:round;stroke-linejoin:round;stroke-width:0.75}
		.st12 {fill:#ffffff;stroke:#000000;stroke-linecap:round;stroke-linejoin:round;stroke-width:0.75}
		.st13 {fill:none;fill-rule:evenodd;font-size:12px;overflow:visible;stroke-linecap:square;stroke-miterlimit:3}
	]]>
	</style>

	<defs id="Markers">
		<g id="lend4">
			<path d="M 2 1 L 0 0 L 2 -1 L 2 1 " style="stroke:none"/>
		</g>
		<marker id="mrkr4-6" class="st2" refX="-23.212121212121" orient="auto" markerUnits="strokeWidth" overflow="visible">
			<use xlink:href="#lend4" transform="scale(-11.606060606061,-11.606060606061) "/>
		</marker>
	</defs>
	<g>
		<title>Page-1</title>
		<g id="shape65-1" transform="translate(399.979,-408.686)">
			<title>Dynamic connector.65</title>
			<path d="M7.09 569.24 L7.09 662.94" class="st1"/>
		</g>
		<g id="shape4-7" transform="translate(265.334,-337.82)">
			<title>Process.9</title>
			<desc>Build a formal model of the system</desc>
			<rect x="0" y="526.723" width="70.8661" height="42.5197" class="st3"/>
			<text x="12.74" y="545.58" class="st4">Build a formal <tspan x="2.18" dy="1.2em" class="st5">model of the system</tspan></text>		</g>
		<g id="shape5-11" transform="translate(371.633,-408.686)">
			<title>Process.5</title>
			<desc>Formalise the properties to be verified</desc>
			<rect x="0" y="526.723" width="70.8661" height="42.5197" class="st3"/>
			<text x="13.25" y="540.78" class="st4">Formalise the <tspan x="9.18" dy="1.2em" class="st5">properties to be </tspan><tspan
						x="23.09" dy="1.2em" class="st5">verified</tspan></text>		</g>
		<g id="shape6-16" transform="translate(485.019,-337.82)">
			<title>Data.6</title>
			<desc>Formal System Model</desc>
			<path d="M-10.63 569.24 L60.24 569.24 L81.5 526.72 L10.63 526.72 L-10.63 569.24 Z" class="st6"/>
			<text x="24.06" y="540.78" class="st4">Formal <tspan x="23.69" dy="1.2em" class="st5">System </tspan><tspan x="24.89"
						dy="1.2em" class="st5">Model</tspan></text>		</g>
		<g id="shape7-21" transform="translate(485.019,-408.686)">
			<title>Data.22</title>
			<desc>Functional Properties</desc>
			<path d="M-10.63 569.24 L60.24 569.24 L81.5 526.72 L10.63 526.72 L-10.63 569.24 Z" class="st6"/>
			<text x="18.4" y="545.58" class="st4">Functional <tspan x="18.56" dy="1.2em" class="st5">Properties</tspan></text>		</g>
		<g id="shape10-25" transform="translate(336.2,-351.993)">
			<title>Dynamic connector</title>
			<path d="M0 562.16 L68.5 562.16 A2.3622 2.3622 0 0 1 73.23 562.16 L143.3 562.16" class="st1"/>
		</g>
		<g id="shape12-30" transform="translate(442.499,-422.859)">
			<title>Dynamic connector.12</title>
			<path d="M0 562.16 L37 562.16" class="st1"/>
		</g>
		<g id="shape13-35" transform="translate(598.405,-337.82)">
			<title>Process</title>
			<desc>Verify the properties of the system</desc>
			<rect x="0" y="526.723" width="70.8661" height="42.5197" class="st3"/>
			<text x="19.49" y="540.78" class="st4">Verify the <tspan x="7.96" dy="1.2em" class="st5">properties of the </tspan><tspan
						x="23.97" dy="1.2em" class="st5">system</tspan></text>		</g>
		<g id="shape15-40" transform="translate(598.405,-480.969)">
			<title>Decision</title>
			<desc>Properties verified?</desc>
			<path d="M0 547.98 L35.43 526.72 L70.87 547.98 L35.43 569.24 L0 547.98 Z" class="st3"/>
			<text x="18.56" y="545.58" class="st4">Properties <tspan x="21.24" dy="1.2em" class="st5">verified?</tspan></text>		</g>
		<g id="shape16-44" transform="translate(626.751,-451.206)">
			<title>Dynamic connector.16</title>
			<path d="M7.09 569.24 L7.09 544.99" class="st1"/>
		</g>
		<g id="shape17-49" transform="translate(598.405,-408.686)">
			<title>Data.17</title>
			<desc>Verification result</desc>
			<path d="M-10.63 569.24 L60.24 569.24 L81.5 526.72 L10.63 526.72 L-10.63 569.24 Z" class="st6"/>
			<text x="16.65" y="545.58" class="st4">Verification <tspan x="26.12" dy="1.2em" class="st5">result</tspan></text>		</g>
		<g id="shape18-53" transform="translate(626.751,-380.339)">
			<title>Dynamic connector.18</title>
			<path d="M7.09 569.24 L7.09 546.41" class="st1"/>
		</g>
		<g id="shape19-58" transform="translate(485.019,-480.969)">
			<title>Decision.19</title>
			<desc>Where is the issue?</desc>
			<path d="M0 547.98 L35.43 526.72 L70.87 547.98 L35.43 569.24 L0 547.98 Z" class="st3"/>
			<text x="14.68" y="545.58" class="st4">Where is the <tspan x="25.44" dy="1.2em" class="st5">issue?</tspan></text>		</g>
		<g id="shape20-62" transform="translate(598.405,-495.143)">
			<title>Dynamic connector.20</title>
			<desc>No</desc>
			<path d="M0 562.16 L-37 562.16" class="st1"/>
			<rect x="-25.9512" y="557.356" width="9.38287" height="9.59985" class="st7"/>
			<text x="-25.95" y="564.56" class="st4">No</text>		</g>
		<g id="shape21-69" transform="translate(265.334,-480.969)">
			<title>Process.21</title>
			<desc>Revise model</desc>
			<rect x="0" y="526.723" width="70.8661" height="42.5197" class="st3"/>
			<text x="13.77" y="550.38" class="st4">Revise model</text>		</g>
		<g id="shape22-72" transform="translate(520.452,-516.402)">
			<title>Dynamic connector.22</title>
			<desc>Model incorrect</desc>
			<path d="M0 562.16 L0 540.9 L-219.68 540.9 L-219.68 556.64" class="st1"/>
			<rect x="-135.916" y="536.096" width="52.1477" height="9.59985" class="st7"/>
			<text x="-135.92" y="543.3" class="st4">Model incorrect</text>		</g>
		<g id="shape23-79" transform="translate(371.633,-480.969)">
			<title>Process.23</title>
			<desc>Revise properties</desc>
			<rect x="0" y="526.723" width="70.8661" height="42.5197" class="st3"/>
			<text x="7.18" y="550.38" class="st4">Revise properties</text>		</g>
		<g id="shape25-82" transform="translate(399.979,-480.969)">
			<title>Dynamic connector.25</title>
			<path d="M7.09 569.24 L7.09 593.49" class="st1"/>
		</g>
		<g id="shape27-87" transform="translate(485.019,-495.143)">
			<title>Dynamic connector.27</title>
			<desc>Properties incorrect</desc>
			<path d="M0 562.16 L-37 562.16" class="st1"/>
			<rect x="-35.294" y="542.068" width="33.7379" height="19.1997" class="st7"/>
			<text x="-35.29" y="549.27" class="st4">Properties <tspan x="-33.06" dy="1.2em" class="st5">incorrect</tspan></text>		</g>
		<g id="shape31-95" transform="translate(32.9941,-266.954)">
			<title>Process.31</title>
			<desc>Define the use cases</desc>
			<rect x="0" y="526.723" width="70.8661" height="42.5197" class="st8"/>
			<text x="2.22" y="550.38" class="st4">Define the use cases</text>		</g>
		<g id="shape33-98" transform="translate(61.3406,-266.954)">
			<title>Dynamic connector.19</title>
			<path d="M7.09 569.24 L7.09 619" class="st1"/>
		</g>
		<g id="shape34-103" transform="translate(146.38,-98.2922)">
			<title>Process.18</title>
			<desc>Define the threat actors that will attack the system</desc>
			<rect x="0" y="526.723" width="70.8661" height="42.5197" class="st8"/>
			<text x="7.43" y="540.78" class="st4">Define the threat <tspan x="11.3" dy="1.2em" class="st5">actors that will </tspan><tspan
						x="6.71" dy="1.2em" class="st5">attack the system</tspan></text>		</g>
		<g id="shape37-108" transform="translate(32.9941,-169.158)">
			<title>Data.37</title>
			<desc>Use Cases</desc>
			<path d="M-10.63 569.24 L60.24 569.24 L81.5 526.72 L10.63 526.72 L-10.63 569.24 Z" class="st9"/>
			<text x="19.24" y="550.38" class="st4">Use Cases</text>		</g>
		<g id="shape39-111" transform="translate(146.38,-27.426)">
			<title>Data.24</title>
			<desc>Threat Actors</desc>
			<path d="M-10.63 569.24 L60.24 569.24 L81.5 526.72 L10.63 526.72 L-10.63 569.24 Z" class="st9"/>
			<text x="24.74" y="545.58" class="st4">Threat <tspan x="25.02" dy="1.2em" class="st5">Actors</tspan></text>		</g>
		<g id="shape40-115" transform="translate(174.726,-98.2922)">
			<title>Dynamic connector.40</title>
			<path d="M7.09 569.24 L7.09 592.07" class="st1"/>
		</g>
		<g id="shape41-120" transform="translate(371.633,-98.2922)">
			<title>Process.26</title>
			<desc>Analyse the threats the system is vulnerable to</desc>
			<rect x="0" y="526.723" width="70.8661" height="42.5197" class="st8"/>
			<text x="3.93" y="540.78" class="st4">Analyse the threats <tspan x="14.25" dy="1.2em" class="st5">the system is </tspan><tspan
						x="13.84" dy="1.2em" class="st5">vulnerable to</tspan></text>		</g>
		<g id="shape43-125" transform="translate(371.633,-169.158)">
			<title>Data.43</title>
			<desc>Threats</desc>
			<path d="M-10.63 569.24 L60.24 569.24 L81.5 526.72 L10.63 526.72 L-10.63 569.24 Z" class="st9"/>
			<text x="23.18" y="550.38" class="st4">Threats</text>		</g>
		<g id="shape44-128" transform="translate(485.019,-98.2922)">
			<title>Process.29</title>
			<desc>Calculate the risk (likelihood and impact) of the threats</desc>
			<rect x="0" y="526.723" width="70.8661" height="42.5197" class="st8"/>
			<text x="7.57" y="535.98" class="st4">Calculate the risk <tspan x="11.29" dy="1.2em" class="st5">(likelihood and </tspan><tspan
						x="12.49" dy="1.2em" class="st5">impact) of the </tspan><tspan x="23.79" dy="1.2em" class="st5">threats</tspan></text>		</g>
		<g id="shape45-134" transform="translate(442.499,-112.465)">
			<title>Dynamic connector.30</title>
			<path d="M0 562.16 L37 562.16" class="st1"/>
		</g>
		<g id="shape46-139" transform="translate(414.153,-140.812)">
			<title>Dynamic connector.31</title>
			<path d="M-7.09 569.24 L-7.09 546.41" class="st1"/>
		</g>
		<g id="shape47-144" transform="translate(485.019,-169.158)">
			<title>Data.32</title>
			<desc>Threat Risk</desc>
			<path d="M-10.63 569.24 L60.24 569.24 L81.5 526.72 L10.63 526.72 L-10.63 569.24 Z" class="st9"/>
			<text x="17.36" y="550.38" class="st4">Threat Risk</text>		</g>
		<g id="shape48-147" transform="translate(513.365,-140.812)">
			<title>Dynamic connector.33</title>
			<path d="M7.09 569.24 L7.09 546.41" class="st1"/>
		</g>
		<g id="shape49-152" transform="translate(598.405,-27.426)">
			<title>Process.34</title>
			<desc>Revise the system to mitigate the risk from the threats</desc>
			<rect x="0" y="526.723" width="70.8661" height="42.5197" class="st8"/>
			<text x="6.29" y="540.78" class="st4">Revise the system <tspan x="4.64" dy="1.2em" class="st5">to mitigate the risk </tspan><tspan
						x="8.63" dy="1.2em" class="st5">from the threats</tspan></text>		</g>
		<g id="shape50-157" transform="translate(555.885,-126.639)">
			<title>Dynamic connector.35</title>
			<path d="M0 576.33 L29.21 576.33" class="st1"/>
		</g>
		<g id="shape52-162" transform="translate(590.609,-91.8859)">
			<title>Decision.52</title>
			<desc>Is risk managed for this use case and verification?</desc>
			<path d="M0 541.58 L43.23 513.91 L86.46 541.58 L43.23 569.24 L0 541.58 Z" class="st8"/>
			<text x="18.05" y="534.38" class="st4">Is risk managed <tspan x="10.03" dy="1.2em" class="st5">for this use case and </tspan><tspan
						x="23.05" dy="1.2em" class="st5">verification?</tspan></text>		</g>
		<g id="shape53-167" transform="translate(626.751,-91.8859)">
			<title>Dynamic connector.39</title>
			<desc>No</desc>
			<path d="M7.09 569.24 L7.09 585.67" class="st1"/>
			<rect x="2.39529" y="572.21" width="9.38287" height="9.59985" class="st7"/>
			<text x="2.4" y="579.41" class="st4">No</text>		</g>
		<g id="shape55-174" transform="translate(259.766,-169.158)">
			<title>Process.43</title>
			<desc>Consider next use case</desc>
			<rect x="0" y="526.723" width="70.8661" height="42.5197" class="st8"/>
			<text x="6.49" y="545.58" class="st4">Consider next use <tspan x="28.27" dy="1.2em" class="st5">case</tspan></text>		</g>
		<g id="shape56-178" transform="translate(626.751,-147.218)">
			<title>Dynamic connector.44</title>
			<desc>Yes</desc>
			<path d="M7.09 569.24 L7.09 552.82" class="st1"/>
			<rect x="1.58283" y="556.676" width="11.0078" height="9.59985" class="st7"/>
			<text x="1.58" y="563.88" class="st4">Yes</text>		</g>
		<g id="shape62-185" transform="translate(61.3406,-339.237)">
			<title>Dynamic connector.62</title>
			<path d="M7.09 569.24 L7.09 593.49" class="st1"/>
		</g>
		<g id="shape64-190" transform="translate(371.633,-266.954)">
			<title>Data.64</title>
			<desc>Security Properties</desc>
			<path d="M-10.63 569.24 L60.24 569.24 L81.5 526.72 L10.63 526.72 L-10.63 569.24 Z" class="st10"/>
			<text x="22.35" y="545.58" class="st4">Security <tspan x="18.56" dy="1.2em" class="st5">Properties</tspan></text>		</g>
		<g id="shape66-194" transform="translate(666.082,-502.229)">
			<title>Dynamic connector.66</title>
			<desc>Yes</desc>
			<path d="M3.19 569.24 L32.24 569.24 L32.24 951.92 L16.5 951.92" class="st1"/>
			<rect x="25.2218" y="657.62" width="11.0078" height="9.59985" class="st7"/>
			<text x="25.22" y="664.82" class="st4">Yes</text>		</g>
		<g id="shape67-201" transform="translate(633.838,-27.426)">
			<title>Dynamic connector.67</title>
			<path d="M0 569.24 L0 590.5 L-627.53 590.5 L-627.53 236.17 L-606.36 236.17" class="st1"/>
		</g>
		<g id="shape68-206" transform="translate(95.255,-211.678)">
			<title>Dynamic connector.68</title>
			<path d="M0 569.24 L0 547.98 L148.82 547.98 L148.82 431.76 L164.56 431.76" class="st1"/>
		</g>
		<g id="shape69-211" transform="translate(407.066,-211.678)">
			<title>Dynamic connector.69</title>
			<path d="M0 569.24 L0 535.23 L-106.3 535.23 L-106.3 519.48" class="st1"/>
		</g>
		<g id="shape71-216" transform="translate(485.019,-266.954)">
			<title>Data.71</title>
			<desc>Selected Security Properties</desc>
			<path d="M-10.63 569.24 L60.24 569.24 L81.5 526.72 L10.63 526.72 L-10.63 569.24 Z" class="st10"/>
			<text x="21.57" y="540.78" class="st4">Selected <tspan x="22.35" dy="1.2em" class="st5">Security </tspan><tspan
						x="18.56" dy="1.2em" class="st5">Properties</tspan></text>		</g>
		<g id="shape72-221" transform="translate(442.499,-295.3)">
			<title>Dynamic connector.72</title>
			<path d="M0 576.33 L37 576.33" class="st1"/>
		</g>
		<g id="shape73-226" transform="translate(527.538,-211.678)">
			<title>Dynamic connector.73</title>
			<path d="M-7.09 569.24 L-7.09 519.48" class="st1"/>
		</g>
		<g id="shape74-231" transform="translate(555.885,-288.213)">
			<title>Dynamic connector.74</title>
			<path d="M0 569.24 L21.26 569.24 L21.26 509.15 L37 509.15" class="st1"/>
		</g>
		<g id="shape75-236" transform="translate(555.885,-429.946)">
			<title>Dynamic connector.75</title>
			<path d="M0 569.24 L9.56 569.24 L9.56 599.01 L26.04 599.01 L26.04 628.77 L37 628.77" class="st1"/>
		</g>
		<g id="shape77-241" transform="translate(293.68,-480.969)">
			<title>Dynamic connector.77</title>
			<path d="M7.09 569.24 L7.09 664.36" class="st1"/>
		</g>
		<g id="shape80-246" transform="translate(32.9941,-410.103)">
			<title>Process.30</title>
			<desc>Define the system</desc>
			<rect x="0" y="526.723" width="70.8661" height="42.5197" class="st11"/>
			<text x="6.05" y="550.38" class="st4">Define the system</text>		</g>
		<g id="shape81-249" transform="translate(32.9941,-339.237)">
			<title>Data</title>
			<desc>System Definition</desc>
			<path d="M-10.63 569.24 L60.24 569.24 L81.5 526.72 L10.63 526.72 L-10.63 569.24 Z" class="st10"/>
			<text x="23.69" y="545.58" class="st4">System <tspan x="19.36" dy="1.2em" class="st5">Definition</tspan></text>		</g>
		<g id="shape82-253" transform="translate(61.3406,-410.103)">
			<title>Dynamic connector.21</title>
			<path d="M7.09 569.24 L7.09 592.07" class="st1"/>
		</g>
		<g id="shape83-258" transform="translate(32.9941,-480.969)">
			<title>Start/End</title>
			<desc>Start</desc>
			<path d="M14.17 569.24 L56.69 569.24 A14.1732 14.1732 -180 0 0 56.69 540.9 L14.17 540.9 A14.1732 14.1732 -180 1 0 14.17
						 569.24 Z" class="st12"/>
			<text x="27.61" y="557.47" class="st4">Start</text>		</g>
		<g id="shape84-261" transform="translate(61.3406,-480.969)">
			<title>Dynamic connector.51</title>
			<path d="M7.09 569.24 L7.09 592.07" class="st1"/>
		</g>
		<g id="shape85-266" transform="translate(109.303,-364.522)">
			<title>Dynamic connector.85</title>
			<path d="M0 562.38 L150.52 561.95" class="st1"/>
		</g>
		<g id="shape86-271" transform="translate(598.405,-169.158)">
			<title>Decision.64</title>
			<desc>Are there more use cases?</desc>
			<path d="M0 547.98 L35.43 526.72 L70.87 547.98 L35.43 569.24 L0 547.98 Z" class="st8"/>
			<text x="10.42" y="545.58" class="st4">Are there more <tspan x="18.29" dy="1.2em" class="st5">use cases?</tspan></text>		</g>
		<g id="shape87-275" transform="translate(598.405,-274.04)">
			<title>Start/End.54</title>
			<desc>End</desc>
			<path d="M14.17 569.24 L56.69 569.24 A14.1732 14.1732 -180 0 0 56.69 540.9 L14.17 540.9 A14.1732 14.1732 -180 1 0 14.17
						 569.24 Z" class="st12"/>
			<text x="29.28" y="557.47" class="st4">End</text>		</g>
		<g id="shape88-278" transform="translate(626.751,-211.678)">
			<title>Dynamic connector.97</title>
			<desc>No</desc>
			<path d="M7.09 569.24 L7.09 512.4" class="st1"/>
			<rect x="2.39525" y="541.462" width="9.38287" height="9.59985" class="st7"/>
			<text x="2.4" y="548.66" class="st4">No</text>		</g>
		<g id="shape89-285" transform="translate(598.405,-190.418)">
			<title>Dynamic connector.89</title>
			<desc>Yes</desc>
			<path d="M0 569.24 L-21.26 569.24 L-21.26 526.72 L-75.59 526.72 A2.3622 2.3622 -180 0 0 -80.31 526.72 L-188.98 526.72
						 A2.3622 2.3622 -180 0 0 -193.7 526.72 L-303.21 526.72 L-303.21 542.47" class="st1"/>
			<rect x="-146.477" y="521.923" width="11.0078" height="9.59985" class="st7"/>
			<text x="-146.48" y="529.12" class="st4">Yes</text>		</g>
		<g id="shape90-292" transform="translate(89.687,-381.757)">
			<title>Dynamic connector.90</title>
			<path d="M0 569.24 L0 555.07 L69.35 555.07 L69.35 521.05 L208.72 521.05 A2.3622 2.3622 0 1 1 213.44 521.05 L276.43 521.05"
					class="st1"/>
		</g>
		<g id="shape91-297" transform="translate(555.885,-351.993)">
			<title>Dynamic connector.91</title>
			<path d="M0 562.16 L37 562.16" class="st1"/>
		</g>
		<g id="shape137-302" transform="translate(146.38,-169.158)">
			<title>Process.137</title>
			<desc>Select one use case</desc>
			<rect x="0" y="526.723" width="70.8661" height="42.5197" class="st8"/>
			<text x="3.93" y="550.38" class="st4">Select one use case</text>		</g>
		<g id="shape138-305" transform="translate(103.86,-183.332)">
			<title>Dynamic connector.138</title>
			<path d="M0 562.16 L37 562.16" class="st1"/>
		</g>
		<g id="shape139-310" transform="translate(259.766,-183.332)">
			<title>Dynamic connector.139</title>
			<path d="M0 562.16 L-37 562.16" class="st1"/>
		</g>
		<g id="shape140-315" transform="translate(174.726,-169.158)">
			<title>Dynamic connector.140</title>
			<path d="M7.09 569.24 L7.09 592.07" class="st1"/>
		</g>
		<g id="shape141-320" transform="translate(259.766,-98.2922)">
			<title>Process.141</title>
			<desc>Identify abuse cases</desc>
			<rect x="0" y="526.723" width="70.8661" height="42.5197" class="st8"/>
			<text x="2.73" y="550.38" class="st4">Identify abuse cases</text>		</g>
		<g id="shape142-323" transform="translate(259.766,-27.426)">
			<title>Data.142</title>
			<desc>Abuse Cases</desc>
			<path d="M-10.63 569.24 L60.24 569.24 L81.5 526.72 L10.63 526.72 L-10.63 569.24 Z" class="st9"/>
			<text x="15.29" y="550.38" class="st4">Abuse Cases</text>		</g>
		<g id="shape143-326" transform="translate(217.246,-48.6859)">
			<title>Dynamic connector.143</title>
			<path d="M0 569.24 L21.26 569.24 L21.26 498.38 L37 498.38" class="st1"/>
		</g>
		<g id="shape144-331" transform="translate(288.112,-98.2922)">
			<title>Dynamic connector.144</title>
			<path d="M7.09 569.24 L7.09 592.07" class="st1"/>
		</g>
		<g id="shape145-336" transform="translate(330.632,-48.6859)">
			<title>Dynamic connector.145</title>
			<path d="M0 569.24 L21.26 569.24 L21.26 498.38 L35.49 498.38" class="st1"/>
		</g>
		<g id="shape146-341" transform="translate(265.334,-266.954)">
			<title>Process.146</title>
			<desc>Formalise Threats</desc>
			<rect x="0" y="526.723" width="70.8661" height="42.5197" class="st11"/>
			<text x="6.43" y="550.38" class="st4">Formalise Threats</text>		</g>
		<g id="shape147-344" transform="translate(336.2,-281.127)">
			<title>Dynamic connector.147</title>
			<path d="M0 562.16 L29.92 562.16" class="st1"/>
		</g>
		<g id="shape148-349" transform="translate(159.035,-480.969)">
			<title>Process.148</title>
			<desc>Revise system</desc>
			<rect x="0" y="526.723" width="70.8661" height="42.5197" class="st3"/>
			<text x="12.62" y="550.38" class="st4">Revise system</text>		</g>
		<g id="shape150-352" transform="translate(520.452,-516.402)">
			<title>Dynamic connector.150</title>
			<desc>System incorrect</desc>
			<path d="M0 562.16 L0 525.2 L-325.98 525.2 L-325.98 556.64" class="st1"/>
			<rect x="-190.265" y="520.404" width="54.546" height="9.59985" class="st7"/>
			<text x="-190.26" y="527.6" class="st4">System incorrect</text>		</g>
		<g id="shape151-359" transform="translate(159.035,-502.229)">
			<title>Dynamic connector.151</title>
			<path d="M0 569.24 L-36.83 569.24 L-36.83 539.38 L-152.87 539.38 L-152.87 710.97 L-131.56 710.97" class="st1"/>
		</g>
	</g>
</svg>
