<?xml version="1.0" encoding="UTF-8" standalone="no"?>
<!-- Created with Inkscape (http://www.inkscape.org/) -->

<svg
   version="1.1"
   id="svg2"
   width="629.93335"
   height="480.21332"
   viewBox="0 0 629.93335 480.21332"
   sodipodi:docname="SCULI_cmyk_with strap.eps"
   xmlns:inkscape="http://www.inkscape.org/namespaces/inkscape"
   xmlns:sodipodi="http://sodipodi.sourceforge.net/DTD/sodipodi-0.dtd"
   xmlns="http://www.w3.org/2000/svg"
   xmlns:svg="http://www.w3.org/2000/svg">
  <defs
     id="defs6" />
  <sodipodi:namedview
     id="namedview4"
     pagecolor="#ffffff"
     bordercolor="#000000"
     borderopacity="0.25"
     inkscape:showpageshadow="2"
     inkscape:pageopacity="0.0"
     inkscape:pagecheckerboard="0"
     inkscape:deskcolor="#d1d1d1" />
  <g
     id="g8"
     inkscape:groupmode="layer"
     inkscape:label="ink_ext_XXXXXX"
     transform="matrix(1.3333333,0,0,-1.3333333,0,480.21333)">
    <g
       id="g10"
       transform="scale(0.1)">
      <path
         d="m 10.9023,995.48 29.3555,2.622 c 1.3906,-12.032 4.625,-21.891 9.707,-29.602 5.0743,-7.699 12.961,-13.93 23.6563,-18.691 10.6953,-4.758 22.7266,-7.129 36.0979,-7.129 11.871,0 22.347,1.8 31.437,5.41 9.094,3.609 15.856,8.551 20.297,14.84 4.438,6.281 6.656,13.14 6.656,20.582 0,7.539 -2.14,14.117 -6.418,19.748 -4.277,5.63 -11.332,10.36 -21.171,14.19 -6.313,2.51 -20.266,6.42 -41.8716,11.72 -21.6015,5.3 -36.7343,10.3 -45.3945,15 -11.2344,6.02 -19.6016,13.48 -25.1055,22.39 -5.5117,8.91 -8.2617,18.88 -8.2617,29.92 0,12.13 3.3672,23.48 10.1055,34.02 6.7344,10.55 16.5742,18.56 29.5195,24.03 12.9336,5.46 27.3164,8.19 43.1483,8.19 17.43,0 32.805,-2.87 46.117,-8.6 13.317,-5.74 23.555,-14.19 30.723,-25.34 7.16,-11.15 11.012,-23.77 11.551,-37.87 l -29.836,-2.3 c -1.61,15.19 -7.039,26.67 -16.285,34.43 -9.254,7.76 -22.914,11.65 -40.985,11.65 -18.8278,0 -32.5427,-3.53 -41.1442,-10.58 -8.6133,-7.05 -12.918,-15.55 -12.918,-25.5 0,-8.63 3.0508,-15.74 9.1445,-21.31 5.9844,-5.58 21.625,-11.29 46.9217,-17.14 25.289,-5.85 42.645,-10.96 52.055,-15.33 13.687,-6.45 23.793,-14.62 30.316,-24.51 6.524,-9.9 9.789,-21.289 9.789,-34.191 0,-12.789 -3.589,-24.84 -10.75,-36.16 -7.168,-11.309 -17.461,-20.11 -30.879,-26.387 -13.421,-6.293 -28.531,-9.434 -45.32,-9.434 -21.2772,0 -39.1131,3.172 -53.4998,9.512 C 43.2773,930 31.9961,939.531 23.8164,952.27 15.6328,965 11.332,979.41 10.9023,995.48"
         style="fill:#0c0b0b;fill-opacity:1;fill-rule:nonzero;stroke:none"
         id="path12" />
      <path
         d="m 274.109,918.25 v 240.37 h 170.047 v -28.36 H 305.238 v -73.62 h 130.09 v -28.21 H 305.238 V 946.609 H 449.605 V 918.25 H 274.109"
         style="fill:#0c0b0b;fill-opacity:1;fill-rule:nonzero;stroke:none"
         id="path14" />
      <path
         d="m 693.242,1002.53 31.125,-8.042 c -6.523,-26.117 -18.262,-46.047 -35.215,-59.758 -16.949,-13.718 -37.668,-20.582 -62.16,-20.582 -25.344,0 -45.961,5.274 -61.836,15.821 -15.883,10.551 -27.968,25.832 -36.258,45.832 -8.289,20 -12.433,41.479 -12.433,64.439 0,25.03 4.683,46.87 14.039,65.5 9.355,18.64 22.672,32.8 39.941,42.47 17.274,9.68 36.282,14.51 57.028,14.51 23.531,0 43.312,-6.12 59.355,-18.36 16.043,-12.24 27.215,-29.46 33.527,-51.65 l -30.64,-7.38 c -5.453,17.49 -13.371,30.23 -23.738,38.21 -10.375,7.98 -23.418,11.97 -39.141,11.97 -18.074,0 -33.188,-4.43 -45.32,-13.29 -12.137,-8.85 -20.668,-20.74 -25.59,-35.66 -4.918,-14.92 -7.379,-30.31 -7.379,-46.16 0,-20.44 2.918,-38.28 8.746,-53.529 5.832,-15.25 14.895,-26.652 27.191,-34.191 12.297,-7.539 25.606,-11.309 39.946,-11.309 17.425,0 32.183,5.129 44.269,15.41 12.086,10.27 20.27,25.52 24.543,45.749"
         style="fill:#0c0b0b;fill-opacity:1;fill-rule:nonzero;stroke:none"
         id="path16" />
      <path
         d="m 949.883,1158.62 h 31.113 v -138.88 c 0,-24.162 -2.672,-43.342 -8.016,-57.549 -5.351,-14.211 -15,-25.769 -28.957,-34.679 -13.957,-8.91 -32.269,-13.364 -54.937,-13.364 -22.035,0 -40.055,3.883 -54.066,11.641 -14.008,7.762 -24.008,18.992 -29.997,33.691 -5.988,14.711 -8.98,34.79 -8.98,60.26 v 138.88 h 31.117 v -138.71 c 0,-20.879 1.899,-36.269 5.695,-46.16 3.797,-9.891 10.317,-17.52 19.575,-22.871 9.246,-5.359 20.558,-8.039 33.922,-8.039 22.886,0 39.199,5.301 48.929,15.91 9.731,10.602 14.602,30.988 14.602,61.16 v 138.71"
         style="fill:#0c0b0b;fill-opacity:1;fill-rule:nonzero;stroke:none"
         id="path18" />
      <path
         d="m 1097.27,1052.54 h 66.89 c 14.22,0 25.35,1.5 33.37,4.51 8.02,3 14.12,7.81 18.29,14.43 4.17,6.61 6.25,13.8 6.25,21.56 0,11.37 -4.04,20.71 -12.11,28.04 -8.08,7.32 -20.83,10.98 -38.26,10.98 h -74.43 z m -31.12,-134.29 v 240.37 h 104.27 c 20.96,0 36.89,-2.15 47.8,-6.47 10.91,-4.32 19.63,-11.94 26.15,-22.88 6.52,-10.93 9.78,-23.01 9.78,-36.23 0,-17.06 -5.4,-31.43 -16.19,-43.13 -10.81,-11.69 -27.5,-19.13 -50.06,-22.3 8.23,-4.04 14.49,-8.03 18.77,-11.97 9.09,-8.52 17.7,-19.179 25.83,-31.968 l 40.9,-65.422 h -39.13 l -31.13,50.012 c -9.09,14.429 -16.57,25.468 -22.45,33.118 -5.89,7.65 -11.15,13.01 -15.81,16.07 -4.65,3.06 -9.38,5.19 -14.19,6.39 -3.53,0.77 -9.31,1.15 -17.33,1.15 h -36.09 V 918.25 h -31.12"
         style="fill:#0c0b0b;fill-opacity:1;fill-rule:nonzero;stroke:none"
         id="path20" />
      <path
         d="m 1341.07,918.25 v 240.37 h 31.12 V 918.25 h -31.12"
         style="fill:#0c0b0b;fill-opacity:1;fill-rule:nonzero;stroke:none"
         id="path22" />
      <path
         d="m 1459.59,918.25 v 240.37 h 31.92 l 123.52,-188.722 v 188.722 h 29.83 V 918.25 h -31.92 l -123.52,188.89 V 918.25 h -29.83"
         style="fill:#0c0b0b;fill-opacity:1;fill-rule:nonzero;stroke:none"
         id="path24" />
      <path
         d="m 1840.06,1012.53 v 28.2 l 99.61,0.17 v -89.201 c -15.29,-12.469 -31.06,-21.84 -47.31,-28.117 -16.26,-6.293 -32.95,-9.434 -50.06,-9.434 -23.1,0 -44.09,5.051 -62.96,15.161 -18.88,10.121 -33.13,24.742 -42.75,43.871 -9.62,19.129 -14.44,40.5 -14.44,64.11 0,23.39 4.79,45.23 14.36,65.5 9.57,20.28 23.34,35.34 41.3,45.18 17.97,9.83 38.66,14.75 62.08,14.75 17.01,0 32.38,-2.81 46.13,-8.44 13.74,-5.63 24.51,-13.47 32.32,-23.53 7.8,-10.06 13.74,-23.17 17.8,-39.35 l -28.07,-7.87 c -3.53,12.24 -7.91,21.86 -13.15,28.86 -5.24,6.99 -12.73,12.59 -22.46,16.8 -9.73,4.21 -20.53,6.32 -32.4,6.32 -14.23,0 -26.53,-2.22 -36.9,-6.65 -10.37,-4.42 -18.74,-10.24 -25.1,-17.46 -6.37,-7.21 -11.31,-15.14 -14.84,-23.77 -5.99,-14.87 -8.99,-30.99 -8.99,-48.37 0,-21.43 3.62,-39.362 10.83,-53.791 7.22,-14.43 17.73,-25.141 31.52,-32.129 13.8,-7 28.45,-10.5 43.96,-10.5 13.47,0 26.63,2.648 39.46,7.949 12.83,5.313 22.56,10.961 29.2,16.973 v 44.768 h -69.14"
         style="fill:#0c0b0b;fill-opacity:1;fill-rule:nonzero;stroke:none"
         id="path26" />
      <path
         d="m 2310.33,1002.53 31.12,-8.042 c -6.52,-26.117 -18.26,-46.047 -35.21,-59.758 -16.95,-13.718 -37.67,-20.582 -62.16,-20.582 -25.34,0 -45.96,5.274 -61.84,15.821 -15.88,10.551 -27.97,25.832 -36.25,45.832 -8.29,20 -12.44,41.479 -12.44,64.439 0,25.03 4.68,46.87 14.04,65.5 9.36,18.64 22.67,32.8 39.95,42.47 17.26,9.68 36.27,14.51 57.02,14.51 23.53,0 43.32,-6.12 59.36,-18.36 16.04,-12.24 27.21,-29.46 33.52,-51.65 l -30.63,-7.38 c -5.46,17.49 -13.38,30.23 -23.75,38.21 -10.37,7.98 -23.42,11.97 -39.14,11.97 -18.07,0 -33.18,-4.43 -45.32,-13.29 -12.14,-8.85 -20.66,-20.74 -25.58,-35.66 -4.92,-14.92 -7.38,-30.31 -7.38,-46.16 0,-20.44 2.91,-38.28 8.74,-53.529 5.83,-15.25 14.89,-26.652 27.19,-34.191 12.3,-7.539 25.61,-11.309 39.94,-11.309 17.43,0 32.19,5.129 44.28,15.41 12.08,10.27 20.26,25.52 24.54,45.749"
         style="fill:#0c0b0b;fill-opacity:1;fill-rule:nonzero;stroke:none"
         id="path28" />
      <path
         d="m 2435.27,1034.83 c 0,-28.97 7.61,-51.791 22.85,-68.459 15.24,-16.672 34.35,-25 57.35,-25 23.42,0 42.7,8.41 57.83,25.25 15.13,16.828 22.7,40.719 22.7,71.649 0,19.57 -3.23,36.65 -9.7,51.24 -6.48,14.59 -15.94,25.91 -28.39,33.94 -12.47,8.04 -26.45,12.06 -41.95,12.06 -22.04,0 -41,-7.74 -56.87,-23.21 -15.88,-15.46 -23.82,-41.29 -23.82,-77.47 z m -32.09,0.49 c 0,39.9 10.48,71.14 31.45,93.71 20.95,22.57 48,33.86 81.16,33.86 21.71,0 41.29,-5.3 58.71,-15.91 17.44,-10.6 30.73,-25.38 39.87,-44.35 9.14,-18.97 13.71,-40.47 13.71,-64.52 0,-24.38 -4.81,-46.188 -14.43,-65.43 -9.62,-19.239 -23.26,-33.801 -40.9,-43.692 -17.66,-9.898 -36.69,-14.84 -57.12,-14.84 -22.14,0 -41.92,5.461 -59.35,16.391 -17.43,10.941 -30.64,25.859 -39.62,44.77 -8.99,18.91 -13.48,38.911 -13.48,60.011"
         style="fill:#0c0b0b;fill-opacity:1;fill-rule:nonzero;stroke:none"
         id="path30" />
      <path
         d="m 2700.72,918.25 v 240.37 h 31.92 L 2856.17,969.898 V 1158.62 H 2886 V 918.25 h -31.92 l -123.52,188.89 V 918.25 h -29.84"
         style="fill:#0c0b0b;fill-opacity:1;fill-rule:nonzero;stroke:none"
         id="path32" />
      <path
         d="m 3038.36,918.25 -91.11,240.37 h 33.69 L 3042.05,984 c 4.92,-13.988 9.04,-27.109 12.35,-39.352 3.64,13.114 7.87,26.231 12.67,39.352 l 63.53,174.62 h 31.77 l -92.09,-240.37 h -31.92"
         style="fill:#0c0b0b;fill-opacity:1;fill-rule:nonzero;stroke:none"
         id="path34" />
      <path
         d="m 3223.77,918.25 v 240.37 h 170.04 v -28.36 h -138.92 v -73.62 h 130.1 v -28.21 h -130.1 v -81.821 h 144.38 V 918.25 h -175.5"
         style="fill:#0c0b0b;fill-opacity:1;fill-rule:nonzero;stroke:none"
         id="path36" />
      <path
         d="m 3506.71,1052.54 h 66.89 c 14.22,0 25.35,1.5 33.37,4.51 8.03,3 14.12,7.81 18.29,14.43 4.17,6.61 6.25,13.8 6.25,21.56 0,11.37 -4.03,20.71 -12.11,28.04 -8.08,7.32 -20.83,10.98 -38.25,10.98 h -74.44 z m -31.12,-134.29 v 240.37 h 104.27 c 20.96,0 36.89,-2.15 47.81,-6.47 10.91,-4.32 19.62,-11.94 26.14,-22.88 6.52,-10.93 9.78,-23.01 9.78,-36.23 0,-17.06 -5.39,-31.43 -16.19,-43.13 -10.81,-11.69 -27.49,-19.13 -50.05,-22.3 8.24,-4.04 14.48,-8.03 18.77,-11.97 9.09,-8.52 17.7,-19.179 25.82,-31.968 l 40.91,-65.422 h -39.14 l -31.13,50.012 c -9.09,14.429 -16.57,25.468 -22.45,33.118 -5.88,7.65 -11.15,13.01 -15.81,16.07 -4.64,3.06 -9.38,5.19 -14.19,6.39 -3.53,0.77 -9.3,1.15 -17.33,1.15 h -36.09 V 918.25 h -31.12"
         style="fill:#0c0b0b;fill-opacity:1;fill-rule:nonzero;stroke:none"
         id="path38" />
      <path
         d="m 3855.26,1012.53 v 28.2 l 99.62,0.17 v -89.201 c -15.29,-12.469 -31.07,-21.84 -47.32,-28.117 -16.26,-6.293 -32.94,-9.434 -50.05,-9.434 -23.1,0 -44.08,5.051 -62.96,15.161 -18.87,10.121 -33.13,24.742 -42.75,43.871 -9.63,19.129 -14.44,40.5 -14.44,64.11 0,23.39 4.78,45.23 14.36,65.5 9.56,20.28 23.34,35.34 41.3,45.18 17.97,9.83 38.66,14.75 62.09,14.75 17,0 32.37,-2.81 46.11,-8.44 13.75,-5.63 24.52,-13.47 32.33,-23.53 7.81,-10.06 13.74,-23.17 17.81,-39.35 l -28.08,-7.87 c -3.53,12.24 -7.91,21.86 -13.15,28.86 -5.25,6.99 -12.73,12.59 -22.46,16.8 -9.73,4.21 -20.54,6.32 -32.41,6.32 -14.22,0 -26.52,-2.22 -36.89,-6.65 -10.37,-4.42 -18.75,-10.24 -25.1,-17.46 -6.37,-7.21 -11.32,-15.14 -14.84,-23.77 -6,-14.87 -8.98,-30.99 -8.98,-48.37 0,-21.43 3.6,-39.362 10.82,-53.791 7.22,-14.43 17.72,-25.141 31.52,-32.129 13.8,-7 28.45,-10.5 43.96,-10.5 13.47,0 26.62,2.648 39.46,7.949 12.83,5.313 22.56,10.961 29.19,16.973 v 44.768 h -69.14"
         style="fill:#0c0b0b;fill-opacity:1;fill-rule:nonzero;stroke:none"
         id="path40" />
      <path
         d="m 4034.26,918.25 v 240.37 h 170.03 v -28.36 h -138.92 v -73.62 h 130.1 v -28.21 h -130.1 v -81.821 h 144.38 V 918.25 h -175.49"
         style="fill:#0c0b0b;fill-opacity:1;fill-rule:nonzero;stroke:none"
         id="path42" />
      <path
         d="m 4285.27,918.25 v 240.37 h 31.92 l 123.53,-188.722 v 188.722 h 29.84 V 918.25 h -31.93 l -123.51,188.89 V 918.25 h -29.85"
         style="fill:#0c0b0b;fill-opacity:1;fill-rule:nonzero;stroke:none"
         id="path44" />
      <path
         d="m 4615.54,918.25 v 212.01 h -77.48 v 28.36 h 186.39 v -28.36 h -77.79 V 918.25 h -31.12"
         style="fill:#0c0b0b;fill-opacity:1;fill-rule:nonzero;stroke:none"
         id="path46" />
      <path
         d="M 175.809,701.551 H 206.93 V 562.672 c 0,-24.16 -2.676,-43.344 -8.02,-57.551 -5.351,-14.211 -15,-25.769 -28.957,-34.68 -13.957,-8.91 -32.269,-13.371 -54.937,-13.371 -22.0355,0 -40.0551,3.879 -54.0668,11.649 -14.0078,7.761 -24.0078,18.992 -29.9961,33.691 -5.9883,14.699 -8.9804,34.789 -8.9804,60.262 V 701.551 H 53.0898 V 562.828 c 0,-20.867 1.8985,-36.258 5.6954,-46.148 3.7968,-9.899 10.3164,-17.52 19.5742,-22.879 9.2461,-5.352 20.5586,-8.031 33.9216,-8.031 22.887,0 39.199,5.3 48.934,15.902 9.726,10.609 14.594,30.988 14.594,61.156 v 138.723"
         style="fill:#0c0b0b;fill-opacity:1;fill-rule:nonzero;stroke:none"
         id="path48" />
      <path
         d="m 290.316,461.172 v 240.379 h 31.118 V 489.539 h 115.82 V 461.172 H 290.316"
         style="fill:#0c0b0b;fill-opacity:1;fill-rule:nonzero;stroke:none"
         id="path50" />
      <path
         d="m 542.617,461.172 v 212.019 h -77.484 v 28.36 h 186.406 v -28.36 H 573.734 V 461.172 h -31.117"
         style="fill:#0c0b0b;fill-opacity:1;fill-rule:nonzero;stroke:none"
         id="path52" />
      <path
         d="m 747.918,595.461 h 66.891 c 14.222,0 25.347,1.508 33.367,4.508 8.023,3.011 14.117,7.82 18.289,14.429 4.172,6.622 6.254,13.801 6.254,21.563 0,11.371 -4.039,20.719 -12.11,28.039 -8.078,7.328 -20.828,10.988 -38.261,10.988 h -74.43 z M 716.801,461.172 v 240.379 h 104.265 c 20.957,0 36.895,-2.16 47.805,-6.473 10.906,-4.316 19.621,-11.949 26.145,-22.879 6.519,-10.929 9.789,-23.008 9.789,-36.238 0,-17.051 -5.403,-31.422 -16.203,-43.121 -10.805,-11.699 -27.489,-19.129 -50.047,-22.301 8.23,-4.039 14.484,-8.027 18.765,-11.969 9.09,-8.531 17.7,-19.179 25.825,-31.968 l 40.91,-65.43 H 884.91 l -31.121,50.008 c -9.09,14.429 -16.574,25.468 -22.457,33.129 -5.883,7.652 -11.152,13 -15.801,16.062 -4.652,3.07 -9.383,5.199 -14.195,6.399 -3.527,0.761 -9.305,1.152 -17.328,1.152 h -36.09 v -106.75 h -31.117"
         style="fill:#0c0b0b;fill-opacity:1;fill-rule:nonzero;stroke:none"
         id="path54" />
      <path
         d="m 1028.45,559.879 h 79.72 l -24.54,66.57 c -7.48,20.231 -13.05,36.84 -16.68,49.852 -2.99,-15.41 -7.22,-30.723 -12.67,-45.91 z m -67.856,-98.707 90.316,240.379 h 33.53 l 96.25,-240.379 h -35.46 l -27.43,72.808 h -98.33 l -25.829,-72.808 h -33.047"
         style="fill:#0c0b0b;fill-opacity:1;fill-rule:nonzero;stroke:none"
         id="path56" />
      <path
         d="M 1223.49,533.32 V 563 h 88.71 v -29.68 h -88.71"
         style="fill:#0c0b0b;fill-opacity:1;fill-rule:nonzero;stroke:none"
         id="path58" />
      <path
         d="m 1379.38,461.172 v 240.379 h 31.12 V 489.539 h 115.82 v -28.367 h -146.94"
         style="fill:#0c0b0b;fill-opacity:1;fill-rule:nonzero;stroke:none"
         id="path60" />
      <path
         d="m 1638.26,559.879 h 79.72 l -24.54,66.57 c -7.49,20.231 -13.05,36.84 -16.69,49.852 -2.99,-15.41 -7.21,-30.723 -12.67,-45.91 z m -67.86,-98.707 90.31,240.379 h 33.53 l 96.25,-240.379 h -35.45 l -27.43,72.808 h -98.34 l -25.83,-72.808 h -33.04"
         style="fill:#0c0b0b;fill-opacity:1;fill-rule:nonzero;stroke:none"
         id="path62" />
      <path
         d="m 1879.81,595.461 h 66.89 c 14.22,0 25.35,1.508 33.37,4.508 8.02,3.011 14.12,7.82 18.29,14.429 4.17,6.622 6.25,13.801 6.25,21.563 0,11.371 -4.03,20.719 -12.11,28.039 -8.08,7.328 -20.83,10.988 -38.26,10.988 h -74.43 z m -31.12,-134.289 v 240.379 h 104.27 c 20.96,0 36.89,-2.16 47.81,-6.473 10.9,-4.316 19.62,-11.949 26.14,-22.879 6.52,-10.929 9.78,-23.008 9.78,-36.238 0,-17.051 -5.4,-31.422 -16.19,-43.121 -10.81,-11.699 -27.49,-19.129 -50.05,-22.301 8.23,-4.039 14.48,-8.027 18.77,-11.969 9.08,-8.531 17.7,-19.179 25.82,-31.968 l 40.91,-65.43 h -39.14 l -31.13,50.008 c -9.09,14.429 -16.57,25.468 -22.45,33.129 -5.89,7.652 -11.15,13 -15.81,16.062 -4.64,3.07 -9.38,5.199 -14.19,6.399 -3.53,0.761 -9.31,1.152 -17.33,1.152 h -36.09 v -106.75 h -31.12"
         style="fill:#0c0b0b;fill-opacity:1;fill-rule:nonzero;stroke:none"
         id="path64" />
      <path
         d="m 2228.36,555.461 v 28.199 l 99.62,0.16 v -89.199 c -15.3,-12.461 -31.07,-21.832 -47.32,-28.121 -16.26,-6.281 -32.95,-9.43 -50.05,-9.43 -23.11,0 -44.09,5.059 -62.97,15.168 -18.87,10.114 -33.12,24.731 -42.75,43.864 -9.62,19.128 -14.44,40.5 -14.44,64.117 0,23.39 4.79,45.222 14.36,65.5 9.57,20.281 23.34,35.34 41.31,45.172 17.96,9.839 38.66,14.757 62.08,14.757 17,0 32.38,-2.808 46.12,-8.437 13.74,-5.633 24.51,-13.481 32.32,-23.531 7.81,-10.059 13.74,-23.18 17.81,-39.352 l -28.07,-7.879 c -3.53,12.25 -7.92,21.871 -13.16,28.86 -5.24,7 -12.72,12.601 -22.45,16.812 -9.74,4.207 -20.54,6.309 -32.41,6.309 -14.22,0 -26.52,-2.211 -36.9,-6.641 -10.37,-4.43 -18.74,-10.25 -25.1,-17.461 -6.36,-7.219 -11.31,-15.137 -14.84,-23.777 -5.99,-14.86 -8.98,-30.992 -8.98,-48.371 0,-21.418 3.61,-39.352 10.83,-53.782 7.21,-14.429 17.72,-25.136 31.52,-32.136 13.8,-6.992 28.44,-10.492 43.95,-10.492 13.48,0 26.63,2.648 39.46,7.949 12.84,5.301 22.56,10.961 29.2,16.972 v 44.77 h -69.14"
         style="fill:#0c0b0b;fill-opacity:1;fill-rule:nonzero;stroke:none"
         id="path66" />
      <path
         d="m 2407.36,461.172 v 240.379 h 170.03 v -28.36 h -138.92 v -73.632 h 130.1 v -28.2 h -130.1 v -81.82 h 144.38 v -28.367 h -175.49"
         style="fill:#0c0b0b;fill-opacity:1;fill-rule:nonzero;stroke:none"
         id="path68" />
      <path
         d="m 2772.23,538.398 29.36,2.633 c 1.39,-12.031 4.63,-21.89 9.7,-29.601 5.08,-7.711 12.97,-13.942 23.66,-18.692 10.69,-4.758 22.73,-7.136 36.1,-7.136 11.87,0 22.35,1.808 31.44,5.418 9.09,3.601 15.86,8.55 20.29,14.839 4.44,6.282 6.66,13.141 6.66,20.571 0,7.55 -2.14,14.129 -6.42,19.761 -4.27,5.629 -11.33,10.36 -21.17,14.18 -6.31,2.52 -20.27,6.43 -41.87,11.731 -21.61,5.296 -36.74,10.296 -45.4,15 -11.22,6.007 -19.59,13.468 -25.1,22.378 -5.51,8.911 -8.27,18.891 -8.27,29.93 0,12.129 3.37,23.469 10.11,34.02 6.74,10.55 16.57,18.558 29.52,24.019 12.93,5.473 27.32,8.199 43.15,8.199 17.44,0 32.8,-2.867 46.12,-8.609 13.31,-5.738 23.55,-14.18 30.72,-25.328 7.17,-11.152 11.01,-23.781 11.55,-37.883 l -29.83,-2.289 c -1.61,15.191 -7.04,26.672 -16.29,34.43 -9.26,7.761 -22.91,11.64 -40.99,11.64 -18.82,0 -32.53,-3.519 -41.14,-10.57 -8.61,-7.051 -12.92,-15.551 -12.92,-25.5 0,-8.641 3.05,-15.738 9.15,-21.32 5.99,-5.571 21.62,-11.278 46.92,-17.129 25.29,-5.852 42.64,-10.961 52.06,-15.328 13.68,-6.453 23.79,-14.621 30.31,-24.524 6.53,-9.886 9.79,-21.277 9.79,-34.179 0,-12.789 -3.59,-24.84 -10.75,-36.161 -7.16,-11.308 -17.46,-20.109 -30.88,-26.398 -13.42,-6.281 -28.53,-9.43 -45.32,-9.43 -21.28,0 -39.12,3.168 -53.5,9.508 -14.38,6.344 -25.66,15.883 -33.84,28.621 -8.19,12.731 -12.49,27.133 -12.92,43.199"
         style="fill:#0c0b0b;fill-opacity:1;fill-rule:nonzero;stroke:none"
         id="path70" />
      <path
         d="m 3202.6,545.449 31.12,-8.027 c -6.53,-26.133 -18.26,-46.051 -35.21,-59.774 -16.96,-13.718 -37.68,-20.578 -62.17,-20.578 -25.34,0 -45.95,5.282 -61.83,15.828 -15.89,10.551 -27.97,25.821 -36.26,45.832 -8.29,20 -12.43,41.481 -12.43,64.442 0,25.027 4.67,46.859 14.04,65.5 9.35,18.637 22.66,32.797 39.94,42.469 17.26,9.668 36.27,14.507 57.03,14.507 23.53,0 43.31,-6.117 59.35,-18.359 16.04,-12.25 27.21,-29.461 33.52,-51.648 l -30.63,-7.379 c -5.46,17.488 -13.37,30.218 -23.74,38.199 -10.38,7.98 -23.43,11.969 -39.15,11.969 -18.07,0 -33.18,-4.418 -45.31,-13.282 -12.14,-8.847 -20.67,-20.738 -25.59,-35.66 -4.92,-14.918 -7.38,-30.308 -7.38,-46.156 0,-20.441 2.92,-38.293 8.75,-53.543 5.82,-15.238 14.89,-26.641 27.19,-34.18 12.3,-7.55 25.6,-11.32 39.93,-11.32 17.44,0 32.2,5.141 44.28,15.422 12.08,10.269 20.27,25.519 24.55,45.738"
         style="fill:#0c0b0b;fill-opacity:1;fill-rule:nonzero;stroke:none"
         id="path72" />
      <path
         d="m 3346.94,559.879 h 79.73 l -24.55,66.57 c -7.49,20.231 -13.05,36.84 -16.68,49.852 -3,-15.41 -7.22,-30.723 -12.67,-45.91 z m -67.85,-98.707 90.31,240.379 h 33.52 l 96.25,-240.379 h -35.45 l -27.42,72.808 h -98.35 l -25.82,-72.808 h -33.04"
         style="fill:#0c0b0b;fill-opacity:1;fill-rule:nonzero;stroke:none"
         id="path74" />
      <path
         d="m 3555.61,461.172 v 240.379 h 31.12 V 489.539 h 115.82 v -28.367 h -146.94"
         style="fill:#0c0b0b;fill-opacity:1;fill-rule:nonzero;stroke:none"
         id="path76" />
      <path
         d="m 3773.1,461.172 v 240.379 h 170.04 v -28.36 h -138.92 v -73.632 h 130.1 v -28.2 h -130.1 v -81.82 h 144.37 V 461.172 H 3773.1"
         style="fill:#0c0b0b;fill-opacity:1;fill-rule:nonzero;stroke:none"
         id="path78" />
      <path
         d="M 26.7813,4.10156 V 244.48 h 31.121 V 4.10156 h -31.121"
         style="fill:#0c0b0b;fill-opacity:1;fill-rule:nonzero;stroke:none"
         id="path80" />
      <path
         d="M 145.301,4.10156 V 244.48 h 31.922 L 300.742,55.75 v 188.73 h 29.836 V 4.10156 H 298.656 L 175.137,192.988 V 4.10156 h -29.836"
         style="fill:#0c0b0b;fill-opacity:1;fill-rule:nonzero;stroke:none"
         id="path82" />
      <path
         d="M 417.332,4.10156 V 244.48 H 575.984 V 216.109 H 448.453 V 141.672 H 558.82 V 113.301 H 448.453 V 4.10156 h -31.121"
         style="fill:#0c0b0b;fill-opacity:1;fill-rule:nonzero;stroke:none"
         id="path84" />
      <path
         d="m 680.863,138.391 h 66.891 c 14.223,0 25.351,1.5 33.367,4.507 8.024,3.012 14.117,7.821 18.289,14.434 4.176,6.609 6.254,13.797 6.254,21.559 0,11.371 -4.039,20.718 -12.109,28.039 -8.075,7.32 -20.828,10.992 -38.258,10.992 H 680.863 Z M 649.742,4.10156 V 244.48 h 104.27 c 20.961,0 36.894,-2.16 47.804,-6.48 10.911,-4.309 19.622,-11.941 26.145,-22.871 6.523,-10.93 9.789,-23.008 9.789,-36.238 0,-17.051 -5.402,-31.43 -16.203,-43.121 -10.805,-11.7 -27.488,-19.129 -50.047,-22.301 8.23,-4.047 14.484,-8.039 18.766,-11.969 9.089,-8.5312 17.699,-19.1914 25.824,-31.9805 L 857,4.10156 H 817.859 L 786.734,54.1094 c -9.089,14.4297 -16.574,25.4726 -22.457,33.1211 -5.879,7.6601 -11.148,13.0075 -15.8,16.0705 -4.653,3.058 -9.383,5.187 -14.196,6.398 -3.527,0.762 -9.301,1.141 -17.328,1.141 h -36.09 V 4.10156 h -31.121"
         style="fill:#0c0b0b;fill-opacity:1;fill-rule:nonzero;stroke:none"
         id="path86" />
      <path
         d="m 961.395,102.809 h 79.725 l -24.54,66.57 c -7.49,20.223 -13.05,36.84 -16.685,49.851 -2.993,-15.41 -7.219,-30.718 -12.672,-45.91 z M 893.539,4.10156 983.855,244.48 h 33.525 L 1113.63,4.10156 h -35.45 L 1050.75,76.8984 H 952.414 L 926.59,4.10156 h -33.051"
         style="fill:#0c0b0b;fill-opacity:1;fill-rule:nonzero;stroke:none"
         id="path88" />
      <path
         d="m 1160.76,81.3281 29.36,2.6211 c 1.39,-12.0195 4.62,-21.8906 9.7,-29.5898 5.08,-7.711 12.97,-13.9375 23.66,-18.6875 10.7,-4.7617 22.73,-7.1406 36.1,-7.1406 11.87,0 22.35,1.8085 31.44,5.4101 9.09,3.6094 15.85,8.5586 20.29,14.8399 4.44,6.289 6.66,13.1484 6.66,20.5781 0,7.539 -2.14,14.1289 -6.42,19.7617 -4.28,5.6289 -11.33,10.3594 -21.17,14.1799 -6.31,2.519 -20.27,6.418 -41.87,11.73 -21.6,5.297 -36.73,10.297 -45.4,15 -11.23,6.008 -19.6,13.469 -25.1,22.379 -5.51,8.91 -8.27,18.879 -8.27,29.93 0,12.129 3.38,23.469 10.11,34.019 6.74,10.551 16.58,18.551 29.52,24.02 12.94,5.473 27.32,8.203 43.15,8.203 17.43,0 32.8,-2.871 46.12,-8.613 13.31,-5.739 23.55,-14.18 30.72,-25.328 7.16,-11.153 11.01,-23.782 11.55,-37.879 l -29.84,-2.301 c -1.61,15.199 -7.03,26.68 -16.28,34.437 -9.26,7.762 -22.92,11.641 -40.98,11.641 -18.83,0 -32.55,-3.527 -41.15,-10.578 -8.61,-7.051 -12.92,-15.551 -12.92,-25.492 0,-8.637 3.05,-15.739 9.15,-21.321 5.98,-5.57 21.62,-11.289 46.92,-17.128 25.29,-5.848 42.64,-10.961 52.05,-15.329 13.69,-6.453 23.79,-14.632 30.32,-24.519 6.52,-9.8907 9.79,-21.2931 9.79,-34.1915 0,-12.7891 -3.59,-24.8399 -10.75,-36.1485 C 1330.05,24.5195 1319.76,15.7188 1306.34,9.42969 1292.92,3.14063 1277.81,0 1261.02,0 c -21.28,0 -39.12,3.17188 -53.5,9.51172 -14.38,6.33988 -25.66,15.87888 -33.84,28.60938 -8.19,12.7383 -12.49,27.1406 -12.92,43.207"
         style="fill:#0c0b0b;fill-opacity:1;fill-rule:nonzero;stroke:none"
         id="path90" />
      <path
         d="M 1483.17,4.10156 V 216.109 h -77.48 v 28.371 h 186.4 v -28.371 h -77.8 V 4.10156 h -31.12"
         style="fill:#0c0b0b;fill-opacity:1;fill-rule:nonzero;stroke:none"
         id="path92" />
      <path
         d="m 1688.46,138.391 h 66.9 c 14.22,0 25.34,1.5 33.37,4.507 8.01,3.012 14.11,7.821 18.28,14.434 4.17,6.609 6.26,13.797 6.26,21.559 0,11.371 -4.04,20.718 -12.11,28.039 -8.08,7.32 -20.83,10.992 -38.26,10.992 h -74.44 z M 1657.34,4.10156 V 244.48 h 104.28 c 20.95,0 36.89,-2.16 47.8,-6.48 10.91,-4.309 19.62,-11.941 26.15,-22.871 6.52,-10.93 9.78,-23.008 9.78,-36.238 0,-17.051 -5.4,-31.43 -16.2,-43.121 -10.8,-11.7 -27.49,-19.129 -50.05,-22.301 8.23,-4.047 14.49,-8.039 18.77,-11.969 9.09,-8.5312 17.7,-19.1914 25.83,-31.9805 l 40.9,-65.41794 h -39.14 l -31.12,50.00784 c -9.09,14.4297 -16.58,25.4726 -22.46,33.1211 -5.88,7.6601 -11.15,13.0075 -15.8,16.0705 -4.65,3.058 -9.38,5.187 -14.19,6.398 -3.54,0.762 -9.31,1.141 -17.33,1.141 h -36.1 V 4.10156 h -31.12"
         style="fill:#0c0b0b;fill-opacity:1;fill-rule:nonzero;stroke:none"
         id="path94" />
      <path
         d="m 2081.29,244.48 h 31.12 V 105.602 c 0,-24.1606 -2.68,-43.3403 -8.02,-57.5629 -5.35,-14.211 -15,-25.7696 -28.95,-34.668 C 2061.48,4.46094 2043.16,0 2020.49,0 c -22.03,0 -40.05,3.87891 -54.06,11.6406 -14.01,7.7578 -24.01,19 -29.99,33.6992 -6,14.6993 -8.99,34.7891 -8.99,60.2622 V 244.48 h 31.12 V 105.762 c 0,-20.8831 1.9,-36.262 5.7,-46.1604 3.79,-9.8907 10.32,-17.5118 19.57,-22.8711 9.25,-5.3594 20.56,-8.0313 33.92,-8.0313 22.89,0 39.2,5.3008 48.93,15.9024 9.73,10.5976 14.6,30.9882 14.6,61.1604 V 244.48"
         style="fill:#0c0b0b;fill-opacity:1;fill-rule:nonzero;stroke:none"
         id="path96" />
      <path
         d="M 2364.87,88.3789 2396,80.3516 C 2389.47,54.2188 2377.73,34.3008 2360.78,20.5781 2343.84,6.85938 2323.11,0 2298.63,0 c -25.36,0 -45.97,5.28125 -61.85,15.8203 -15.88,10.5508 -27.96,25.8281 -36.25,45.8281 -8.29,20.0118 -12.43,41.4926 -12.43,64.4416 0,25.039 4.67,46.871 14.03,65.512 9.36,18.636 22.67,32.789 39.94,42.468 17.28,9.668 36.29,14.512 57.03,14.512 23.53,0 43.31,-6.121 59.36,-18.371 16.04,-12.242 27.21,-29.461 33.53,-51.652 l -30.65,-7.368 c -5.45,17.489 -13.36,30.219 -23.74,38.2 -10.37,7.98 -23.42,11.968 -39.14,11.968 -18.07,0 -33.18,-4.429 -45.32,-13.281 -12.13,-8.859 -20.67,-20.738 -25.58,-35.656 -4.92,-14.934 -7.38,-30.313 -7.38,-46.16 0,-20.442 2.91,-38.2932 8.74,-53.5432 5.83,-15.25 14.89,-26.6368 27.19,-34.1875 12.3,-7.543 25.61,-11.3125 39.95,-11.3125 17.43,0 32.18,5.1406 44.27,15.4101 12.09,10.2813 20.27,25.5313 24.54,45.75"
         style="fill:#0c0b0b;fill-opacity:1;fill-rule:nonzero;stroke:none"
         id="path98" />
      <path
         d="M 2527.02,4.10156 V 216.109 h -77.48 v 28.371 h 186.41 v -28.371 h -77.81 V 4.10156 h -31.12"
         style="fill:#0c0b0b;fill-opacity:1;fill-rule:nonzero;stroke:none"
         id="path100" />
      <path
         d="m 2855.04,244.48 h 31.12 V 105.602 c 0,-24.1606 -2.68,-43.3403 -8.01,-57.5629 -5.36,-14.211 -15.01,-25.7696 -28.96,-34.668 C 2835.23,4.46094 2816.91,0 2794.25,0 c -22.04,0 -40.06,3.87891 -54.07,11.6406 -14.01,7.7578 -24.01,19 -29.99,33.6992 -6,14.6993 -8.98,34.7891 -8.98,60.2622 V 244.48 h 31.11 V 105.762 c 0,-20.8831 1.9,-36.262 5.7,-46.1604 3.8,-9.8907 10.32,-17.5118 19.57,-22.8711 9.25,-5.3594 20.55,-8.0313 33.93,-8.0313 22.88,0 39.19,5.3008 48.92,15.9024 9.73,10.5976 14.6,30.9882 14.6,61.1604 V 244.48"
         style="fill:#0c0b0b;fill-opacity:1;fill-rule:nonzero;stroke:none"
         id="path102" />
      <path
         d="m 3002.43,138.391 h 66.89 c 14.22,0 25.35,1.5 33.37,4.507 8.02,3.012 14.12,7.821 18.29,14.434 4.17,6.609 6.25,13.797 6.25,21.559 0,11.371 -4.03,20.718 -12.11,28.039 -8.07,7.32 -20.83,10.992 -38.26,10.992 h -74.43 z M 2971.31,4.10156 V 244.48 h 104.27 c 20.95,0 36.9,-2.16 47.81,-6.48 10.9,-4.309 19.62,-11.941 26.14,-22.871 6.53,-10.93 9.79,-23.008 9.79,-36.238 0,-17.051 -5.41,-31.43 -16.2,-43.121 -10.8,-11.7 -27.49,-19.129 -50.06,-22.301 8.24,-4.047 14.5,-8.039 18.78,-11.969 9.08,-8.5312 17.69,-19.1914 25.82,-31.9805 l 40.9,-65.41794 h -39.14 L 3108.3,54.1094 c -9.09,14.4297 -16.58,25.4726 -22.45,33.1211 -5.89,7.6601 -11.15,13.0075 -15.81,16.0705 -4.64,3.058 -9.38,5.187 -14.19,6.398 -3.53,0.762 -9.31,1.141 -17.32,1.141 h -36.1 V 4.10156 h -31.12"
         style="fill:#0c0b0b;fill-opacity:1;fill-rule:nonzero;stroke:none"
         id="path104" />
      <path
         d="M 3241.57,4.10156 V 244.48 h 170.05 V 216.109 H 3272.7 v -73.621 h 130.09 V 114.289 H 3272.7 V 32.4688 h 144.38 V 4.10156 h -175.51"
         style="fill:#0c0b0b;fill-opacity:1;fill-rule:nonzero;stroke:none"
         id="path106" />
      <path
         d="m 3482.33,81.3281 29.36,2.6211 c 1.38,-12.0195 4.62,-21.8906 9.71,-29.5898 5.07,-7.711 12.96,-13.9375 23.65,-18.6875 10.7,-4.7617 22.73,-7.1406 36.1,-7.1406 11.86,0 22.35,1.8085 31.44,5.4101 9.08,3.6094 15.85,8.5586 20.29,14.8399 4.43,6.289 6.66,13.1484 6.66,20.5781 0,7.539 -2.14,14.1289 -6.42,19.7617 -4.28,5.6289 -11.34,10.3594 -21.18,14.1799 -6.31,2.519 -20.26,6.418 -41.86,11.73 -21.61,5.297 -36.74,10.297 -45.4,15 -11.23,6.008 -19.6,13.469 -25.11,22.379 -5.5,8.91 -8.25,18.879 -8.25,29.93 0,12.129 3.36,23.469 10.1,34.019 6.73,10.551 16.57,18.551 29.51,24.02 12.95,5.473 27.33,8.203 43.16,8.203 17.43,0 32.81,-2.871 46.12,-8.613 13.31,-5.739 23.55,-14.18 30.72,-25.328 7.16,-11.153 11.01,-23.782 11.54,-37.879 l -29.83,-2.301 c -1.6,15.199 -7.03,26.68 -16.29,34.437 -9.24,7.762 -22.91,11.641 -40.98,11.641 -18.82,0 -32.54,-3.527 -41.15,-10.578 -8.61,-7.051 -12.91,-15.551 -12.91,-25.492 0,-8.637 3.05,-15.739 9.14,-21.321 6,-5.57 21.64,-11.289 46.92,-17.128 25.3,-5.848 42.64,-10.961 52.06,-15.329 13.69,-6.453 23.8,-14.632 30.32,-24.519 6.52,-9.8907 9.78,-21.2931 9.78,-34.1915 0,-12.7891 -3.58,-24.8399 -10.75,-36.1485 C 3651.62,24.5195 3641.33,15.7188 3627.9,9.42969 3614.49,3.14063 3599.37,0 3582.59,0 c -21.29,0 -39.11,3.17188 -53.5,9.51172 -14.38,6.33988 -25.67,15.87888 -33.85,28.60938 -8.18,12.7383 -12.49,27.1406 -12.91,43.207"
         style="fill:#0c0b0b;fill-opacity:1;fill-rule:nonzero;stroke:none"
         id="path108" />
      <path
         d="m 1105.4,2089.77 c 4.8,-115.62 47.78,-214.96 129.03,-297.99 86.33,-88.27 191.16,-132.37 314.52,-132.37 121.37,0 225.46,43.87 312.3,131.62 86.82,87.74 130.25,194.64 130.25,320.73 v 257.82 h -290.1 v -254.8 c 0,-45.38 -15.8,-83.96 -47.36,-115.73 -31.6,-31.77 -69.57,-47.66 -113.97,-47.66 -44.4,0 -82.15,15.89 -113.23,47.66 -25.18,25.74 -39.99,56.04 -44.76,90.72 H 1237.72 1105.4"
         style="fill:#0c0b0b;fill-opacity:1;fill-rule:nonzero;stroke:none"
         id="path110" />
      <path
         d="m 1548.95,3600.44 c -122.36,0 -226.96,-44.14 -313.78,-132.38 -86.84,-88.27 -130.25,-195.42 -130.25,-321.49 v -777.05 h 132.8 142.5 v 783.1 c 0,45.39 15.54,84.2 46.62,116.49 31.08,32.27 68.83,48.42 113.23,48.42 44.4,0 82.37,-16.15 113.97,-48.42 31.56,-32.29 47.36,-71.1 47.36,-116.49 v -222.39 h 290.1 v 216.34 c 0,125.05 -42.92,231.97 -128.77,320.73 -85.84,88.74 -190.45,133.14 -313.78,133.14"
         style="fill:#0c0b0b;fill-opacity:1;fill-rule:nonzero;stroke:none"
         id="path112" />
      <path
         d="m 3614.75,1968.04 h 482.51 v -284.43 h -482.53 l 0.02,284.41 h -279.72 l -0.02,1611.24 h 279.74 v -1610.6"
         style="fill:#0c0b0b;fill-opacity:1;fill-rule:nonzero;stroke:none"
         id="path114" />
      <path
         d="M 4309.25,3019.75 V 1683.61 h 279.74 v 1336.14 h -145.57 -134.17"
         style="fill:#0c0b0b;fill-opacity:1;fill-rule:nonzero;stroke:none"
         id="path116" />
      <path
         d="m 4588.99,3299.49 v 279.77 h -279.74 v -279.77 h 134.17 145.57"
         style="fill:#0c0b0b;fill-opacity:1;fill-rule:nonzero;stroke:none"
         id="path118" />
      <path
         d="m 4443.42,3299.49 v -279.74 h 279.75 v 279.74 h -279.75"
         style="fill:#f14662;fill-opacity:1;fill-rule:nonzero;stroke:none"
         id="path120" />
      <path
         d="m 3177.69,1833.98 v -279.74 h 279.74 v 279.74 h -279.74"
         style="fill:#50baed;fill-opacity:1;fill-rule:nonzero;stroke:none"
         id="path122" />
      <path
         d="M 2814.41,3579.26 V 2116.3 c 0,-45.39 -15.54,-83.97 -46.62,-115.74 -31.08,-31.77 -68.83,-47.66 -113.23,-47.66 -44.4,0 -82.4,15.89 -113.97,47.66 -31.59,31.77 -47.36,70.35 -47.36,115.74 v 1183.21 h -133.95 -139.87 v -0.74 -1185.5 c 0,-125.07 42.93,-231.47 128.77,-319.22 85.85,-87.74 190.43,-131.62 313.78,-131.62 122.34,0 226.94,43.35 313.79,130.11 86.81,86.73 130.24,193.65 130.24,320.73 v 1465.99 h -291.58"
         style="fill:#0c0b0b;fill-opacity:1;fill-rule:nonzero;stroke:none"
         id="path124" />
      <path
         d="M 2079.54,3579.25 V 3299.5 h 279.74 v 279.75 h -279.74"
         style="fill:#4cc19e;fill-opacity:1;fill-rule:nonzero;stroke:none"
         id="path126" />
      <path
         d="m 1237.72,2369.52 v -279.75 h 279.74 v 279.75 h -279.74"
         style="fill:#605bb3;fill-opacity:1;fill-rule:nonzero;stroke:none"
         id="path128" />
      <path
         d="m 799.957,2369.21 -227.867,318.29 -100.77,-75.92 -119.175,-89.79 0.418,-0.58 227.089,-317.21 5.883,-9.02 c 26.426,-36.9 36.043,-77.46 28.879,-121.67 -7.191,-44.23 -28.812,-79.25 -64.91,-105.1 -36.106,-25.86 -76.043,-34.91 -119.805,-27.18 -18.797,3.32 -35.894,9.5 -51.492,18.2 -20.723,11.56 -38.727,27.7 -53.801,48.75 0,0 -19.715,26.73 -35.515,88.34 H 17.5156 l -6.6133,-1.23 c 0.6563,-7.81 1.543,-15.45 2.4415,-23.09 8.3632,-71.4 27.2656,-135.37 56.7617,-191.85 0.7617,-1.46 1.4453,-2.98 2.2226,-4.43 16.6641,-31.1 35.9139,-58.77 57.6599,-83.1 22.684,-25.38 48.086,-47.13 76.289,-65.16 56.938,-36.37 123.227,-57.91 198.532,-65.14 6.476,-0.62 12.875,-1.35 19.484,-1.75 0.801,-0.06 1.598,-0.1 2.391,-0.16 11.332,-0.71 22.597,-1.12 33.742,-0.97 86.844,1.14 167.777,28.53 242.773,82.24 99.477,71.23 158.828,168.02 178.035,290.31 19.215,122.33 -7.879,234.72 -81.277,337.22"
         style="fill:#0c0b0b;fill-opacity:1;fill-rule:nonzero;stroke:none"
         id="path130" />
      <path
         d="M 302.758,2834.82 79.3281,2666.5 247.891,2443.25 471.32,2611.58 302.758,2834.82"
         style="fill:#e7c018;fill-opacity:1;fill-rule:nonzero;stroke:none"
         id="path132" />
      <path
         d="m 876.449,3164.19 -0.222,2.44 h -0.012 c -0.649,7.57 -1.496,15 -2.371,22.41 -8.578,73.24 -28.156,138.73 -58.985,196.27 -16.664,31.11 -35.91,58.78 -57.66,83.11 -22.679,25.38 -48.086,47.13 -76.289,65.16 -56.933,36.37 -123.222,57.91 -198.531,65.13 -6.473,0.62 -12.875,1.36 -19.481,1.76 -0.8,0.05 -1.597,0.1 -2.394,0.15 -11.332,0.72 -22.598,1.13 -33.738,0.98 -86.848,-1.14 -167.778,-28.54 -242.774,-82.24 C 84.5156,3448.12 25.1641,3351.34 5.95313,3229.05 -8.01953,3140.09 2.625,3056.4 37.6367,2977.94 c 13.1289,-29.43 29.5781,-58.15 49.5977,-86.11 l 102.0236,-142.51 219.945,165.7 -45.039,62.92 -56.629,79.1 -5.883,9.02 c -26.422,36.9 -36.043,77.46 -28.875,121.67 7.188,44.22 28.813,79.25 64.911,105.1 36.101,25.85 76.039,34.91 119.804,27.18 43.77,-7.74 78.867,-30.05 105.293,-66.96 0,0 19.824,-26.87 35.649,-88.86 h 268.394 0.039 9.582"
         style="fill:#0c0b0b;fill-opacity:1;fill-rule:nonzero;stroke:none"
         id="path134" />
    </g>
  </g>
</svg>
